# 3ds Max Wavefront OBJ Exporter v0.97b - (c)2007 guruware
# File Created: 18.04.2020 23:35:26

mtllib goaltransparency.mtl

#
# object goaltransparency
#

v  -36.0125 5.2252 -0.1316
v  -36.0125 5.2359 -0.1495
v  -36.0125 5.1970 -0.0979
v  -36.0125 5.2128 -0.1148
v  -36.0125 5.2448 -0.1683
v  -36.0125 5.2519 -0.1879
v  -36.0125 5.2569 -0.2082
v  -36.0125 5.2600 -0.2288
v  -36.0125 5.2600 -0.2704
v  -36.0125 5.1970 -0.4013
v  -36.0125 2.3395 -0.4013
v  -36.0125 2.3395 -0.0979
v  -36.0125 3.6165 1.1792
v  -36.0125 3.9200 1.1792
v  -36.0125 5.2610 -0.2496
v  -36.0125 5.2569 -0.2911
v  -36.0125 5.2519 -0.3113
v  -36.0125 5.2448 -0.3309
v  -36.0125 5.2359 -0.3498
v  -36.0125 5.2128 -0.3844
v  -36.0125 5.2252 -0.3676
v  -36.0125 3.9200 -1.6784
v  -36.0125 3.6165 -1.6784
v  -36.0125 3.8863 -1.7066
v  -36.0125 3.8684 -1.7173
v  -36.0125 3.9031 -1.6941
v  -36.0125 3.8496 -1.7262
v  -36.0125 3.8299 -1.7332
v  -36.0125 3.8097 -1.7383
v  -36.0125 3.7891 -1.7413
v  -36.0125 3.7474 -1.7413
v  -36.0125 3.7682 -1.7424
v  -36.0125 3.7268 -1.7383
v  -36.0125 3.7066 -1.7332
v  -36.0125 3.6869 -1.7262
v  -36.0125 3.6681 -1.7173
v  -36.0125 3.6334 -1.6941
v  -36.0125 3.6502 -1.7066
v  -36.0125 2.3237 -0.3844
v  -36.0125 2.3113 -0.3676
v  -36.0125 2.3006 -0.3498
v  -36.0125 2.2917 -0.3309
v  -36.0125 2.2847 -0.3113
v  -36.0125 2.2796 -0.2911
v  -36.0125 2.2765 -0.2704
v  -36.0125 2.2755 -0.2496
v  -36.0125 2.2765 -0.2288
v  -36.0125 2.2796 -0.2082
v  -36.0125 2.2847 -0.1879
v  -36.0125 2.2917 -0.1683
v  -36.0125 2.3006 -0.1495
v  -36.0125 2.3237 -0.1148
v  -36.0125 2.3113 -0.1316
v  -36.0125 3.6502 1.2073
v  -36.0125 3.6681 1.2181
v  -36.0125 3.6334 1.1949
v  -36.0125 3.6869 1.2270
v  -36.0125 3.7066 1.2340
v  -36.0125 3.7268 1.2391
v  -36.0125 3.7474 1.2421
v  -36.0125 3.7891 1.2421
v  -36.0125 3.7682 1.2431
v  -36.0125 3.8097 1.2391
v  -36.0125 3.8299 1.2340
v  -36.0125 3.8496 1.2270
v  -36.0125 3.8684 1.2181
v  -36.0125 3.9031 1.1949
v  -36.0125 3.8863 1.2073
v  -35.9925 5.2128 -0.1148
v  -35.9925 5.1970 -0.0979
v  -35.9925 5.2359 -0.1495
v  -35.9925 5.2252 -0.1316
v  -35.9925 5.2519 -0.1879
v  -35.9925 5.2448 -0.1683
v  -35.9925 5.2600 -0.2288
v  -35.9925 5.2569 -0.2082
v  -35.9925 5.2600 -0.2704
v  -35.9925 5.1970 -0.4013
v  -35.9925 2.3395 -0.0979
v  -35.9925 2.3395 -0.4013
v  -35.9925 3.6165 1.1792
v  -35.9925 3.9200 1.1792
v  -35.9925 5.2610 -0.2496
v  -35.9925 5.2519 -0.3113
v  -35.9925 5.2569 -0.2911
v  -35.9925 5.2359 -0.3498
v  -35.9925 5.2448 -0.3309
v  -35.9925 5.2128 -0.3844
v  -35.9925 5.2252 -0.3676
v  -35.9925 3.6165 -1.6784
v  -35.9925 3.9200 -1.6784
v  -35.9925 3.9031 -1.6941
v  -35.9925 3.8684 -1.7173
v  -35.9925 3.8863 -1.7066
v  -35.9925 3.8299 -1.7332
v  -35.9925 3.8496 -1.7262
v  -35.9925 3.7891 -1.7413
v  -35.9925 3.8097 -1.7383
v  -35.9925 3.7474 -1.7413
v  -35.9925 3.7682 -1.7424
v  -35.9925 3.7066 -1.7332
v  -35.9925 3.7268 -1.7383
v  -35.9925 3.6681 -1.7173
v  -35.9925 3.6869 -1.7262
v  -35.9925 3.6334 -1.6941
v  -35.9925 3.6502 -1.7066
v  -35.9925 2.3113 -0.3676
v  -35.9925 2.3237 -0.3844
v  -35.9925 2.2917 -0.3309
v  -35.9925 2.3006 -0.3498
v  -35.9925 2.2796 -0.2911
v  -35.9925 2.2847 -0.3113
v  -35.9925 2.2755 -0.2496
v  -35.9925 2.2765 -0.2704
v  -35.9925 2.2765 -0.2288
v  -35.9925 2.2847 -0.1879
v  -35.9925 2.2796 -0.2082
v  -35.9925 2.3006 -0.1495
v  -35.9925 2.2917 -0.1683
v  -35.9925 2.3237 -0.1148
v  -35.9925 2.3113 -0.1316
v  -35.9925 3.6334 1.1949
v  -35.9925 3.6681 1.2181
v  -35.9925 3.6502 1.2073
v  -35.9925 3.7066 1.2340
v  -35.9925 3.6869 1.2270
v  -35.9925 3.7474 1.2421
v  -35.9925 3.7268 1.2391
v  -35.9925 3.7891 1.2421
v  -35.9925 3.7682 1.2431
v  -35.9925 3.8299 1.2340
v  -35.9925 3.8097 1.2391
v  -35.9925 3.8684 1.2181
v  -35.9925 3.8496 1.2270
v  -35.9925 3.9031 1.1949
v  -35.9925 3.8863 1.2073
# 136 vertices

vn -0.6963 0.5970 0.3985
vn -0.6963 0.6331 0.3383
vn -0.7031 0.5118 0.4936
vn -0.6948 0.5532 0.4597
vn -0.6962 0.6632 0.2747
vn -0.6962 0.6869 0.2084
vn -0.6962 0.7041 0.1400
vn -0.6963 0.7143 0.0704
vn -0.6963 0.7143 -0.0704
vn -0.7031 0.5119 -0.4937
vn -0.7031 -0.5118 -0.4937
vn -0.7031 -0.5118 0.4937
vn -0.7031 -0.4937 0.5119
vn -0.7031 0.4936 0.5119
vn -0.6962 0.7179 0.0000
vn -0.6962 0.7041 -0.1400
vn -0.6962 0.6869 -0.2084
vn -0.6962 0.6632 -0.2747
vn -0.6963 0.6331 -0.3383
vn -0.6948 0.5532 -0.4597
vn -0.6963 0.5970 -0.3985
vn -0.7030 0.4936 -0.5119
vn -0.7031 -0.4937 -0.5119
vn -0.6964 0.3986 -0.5968
vn -0.6962 0.3384 -0.6331
vn -0.6948 0.4596 -0.5532
vn -0.6963 0.2747 -0.6632
vn -0.6962 0.2084 -0.6869
vn -0.6963 0.1400 -0.7040
vn -0.6963 0.0704 -0.7143
vn -0.6962 -0.0704 -0.7143
vn -0.6962 0.0000 -0.7178
vn -0.6963 -0.1400 -0.7040
vn -0.6963 -0.2084 -0.6869
vn -0.6963 -0.2747 -0.6632
vn -0.6962 -0.3384 -0.6331
vn -0.6948 -0.4597 -0.5532
vn -0.6963 -0.3986 -0.5969
vn -0.6948 -0.5532 -0.4597
vn -0.6963 -0.5969 -0.3985
vn -0.6962 -0.6331 -0.3384
vn -0.6962 -0.6632 -0.2747
vn -0.6963 -0.6869 -0.2083
vn -0.6963 -0.7040 -0.1401
vn -0.6962 -0.7144 -0.0704
vn -0.6962 -0.7178 0.0000
vn -0.6962 -0.7144 0.0704
vn -0.6963 -0.7040 0.1401
vn -0.6963 -0.6869 0.2083
vn -0.6962 -0.6632 0.2747
vn -0.6962 -0.6331 0.3384
vn -0.6947 -0.5532 0.4597
vn -0.6963 -0.5969 0.3985
vn -0.6963 -0.3986 0.5969
vn -0.6962 -0.3384 0.6331
vn -0.6947 -0.4597 0.5532
vn -0.6963 -0.2747 0.6632
vn -0.6962 -0.2084 0.6869
vn -0.6962 -0.1400 0.7040
vn -0.6963 -0.0704 0.7143
vn -0.6963 0.0704 0.7143
vn -0.6962 0.0000 0.7179
vn -0.6962 0.1400 0.7040
vn -0.6962 0.2084 0.6869
vn -0.6962 0.2747 0.6632
vn -0.6962 0.3384 0.6331
vn -0.6948 0.4597 0.5532
vn -0.6963 0.3986 0.5969
vn 0.6948 0.5532 0.4597
vn 0.7031 0.5118 0.4936
vn 0.6963 0.6331 0.3383
vn 0.6963 0.5970 0.3985
vn 0.6962 0.6869 0.2084
vn 0.6962 0.6632 0.2747
vn 0.6963 0.7143 0.0704
vn 0.6962 0.7041 0.1400
vn 0.6963 0.7143 -0.0704
vn 0.7031 0.5119 -0.4937
vn 0.7031 -0.5118 0.4937
vn 0.7031 -0.5118 -0.4937
vn 0.7031 -0.4937 0.5119
vn 0.7031 0.4936 0.5119
vn 0.6962 0.7179 0.0000
vn 0.6962 0.6869 -0.2084
vn 0.6962 0.7041 -0.1400
vn 0.6963 0.6331 -0.3383
vn 0.6962 0.6632 -0.2747
vn 0.6948 0.5532 -0.4597
vn 0.6963 0.5970 -0.3985
vn 0.7031 -0.4937 -0.5119
vn 0.7030 0.4936 -0.5119
vn 0.6948 0.4596 -0.5532
vn 0.6962 0.3384 -0.6331
vn 0.6964 0.3986 -0.5968
vn 0.6962 0.2084 -0.6869
vn 0.6963 0.2747 -0.6632
vn 0.6963 0.0704 -0.7143
vn 0.6963 0.1400 -0.7040
vn 0.6962 -0.0704 -0.7143
vn 0.6962 0.0000 -0.7178
vn 0.6963 -0.2084 -0.6869
vn 0.6963 -0.1400 -0.7040
vn 0.6962 -0.3384 -0.6331
vn 0.6963 -0.2747 -0.6632
vn 0.6948 -0.4597 -0.5532
vn 0.6963 -0.3986 -0.5969
vn 0.6963 -0.5969 -0.3985
vn 0.6948 -0.5532 -0.4597
vn 0.6962 -0.6632 -0.2747
vn 0.6962 -0.6331 -0.3384
vn 0.6963 -0.7040 -0.1401
vn 0.6963 -0.6869 -0.2083
vn 0.6962 -0.7178 0.0000
vn 0.6962 -0.7144 -0.0704
vn 0.6962 -0.7144 0.0704
vn 0.6963 -0.6869 0.2083
vn 0.6963 -0.7040 0.1401
vn 0.6962 -0.6331 0.3384
vn 0.6962 -0.6632 0.2747
vn 0.6947 -0.5532 0.4597
vn 0.6963 -0.5969 0.3985
vn 0.6947 -0.4597 0.5532
vn 0.6962 -0.3384 0.6331
vn 0.6963 -0.3986 0.5969
vn 0.6962 -0.2084 0.6869
vn 0.6963 -0.2747 0.6632
vn 0.6963 -0.0704 0.7143
vn 0.6962 -0.1400 0.7040
vn 0.6963 0.0704 0.7143
vn 0.6962 0.0000 0.7179
vn 0.6962 0.2084 0.6869
vn 0.6962 0.1400 0.7040
vn 0.6962 0.3384 0.6331
vn 0.6962 0.2747 0.6632
vn 0.6948 0.4597 0.5532
vn 0.6963 0.3986 0.5969
# 136 vertex normals

vt 0.4605 0.0120 0.0000
vt 0.4665 0.0084 0.0000
vt 0.4492 0.0214 0.0000
vt 0.4548 0.0162 0.0000
vt 0.4728 0.0054 0.0000
vt 0.4793 0.0031 0.0000
vt 0.4861 0.0014 0.0000
vt 0.4930 0.0003 0.0000
vt 0.5070 0.0003 0.0000
vt 0.5508 0.0214 0.0000
vt 0.5508 0.9786 0.0000
vt 0.4492 0.9786 0.0000
vt 0.0214 0.5508 0.0000
vt 0.0214 0.4492 0.0000
vt 0.5000 0.0000 0.0000
vt 0.5139 0.0014 0.0000
vt 0.5207 0.0031 0.0000
vt 0.5272 0.0054 0.0000
vt 0.5335 0.0084 0.0000
vt 0.5452 0.0162 0.0000
vt 0.5395 0.0120 0.0000
vt 0.9786 0.4492 0.0000
vt 0.9786 0.5508 0.0000
vt 0.9880 0.4605 0.0000
vt 0.9916 0.4665 0.0000
vt 0.9838 0.4548 0.0000
vt 0.9946 0.4728 0.0000
vt 0.9969 0.4793 0.0000
vt 0.9986 0.4861 0.0000
vt 0.9997 0.4930 0.0000
vt 0.9997 0.5070 0.0000
vt 1.0000 0.5000 0.0000
vt 0.9986 0.5139 0.0000
vt 0.9969 0.5207 0.0000
vt 0.9946 0.5272 0.0000
vt 0.9916 0.5335 0.0000
vt 0.9838 0.5452 0.0000
vt 0.9880 0.5395 0.0000
vt 0.5452 0.9838 0.0000
vt 0.5395 0.9880 0.0000
vt 0.5335 0.9916 0.0000
vt 0.5272 0.9946 0.0000
vt 0.5207 0.9969 0.0000
vt 0.5139 0.9986 0.0000
vt 0.5070 0.9997 0.0000
vt 0.5000 1.0000 0.0000
vt 0.4930 0.9997 0.0000
vt 0.4861 0.9986 0.0000
vt 0.4793 0.9969 0.0000
vt 0.4728 0.9946 0.0000
vt 0.4665 0.9916 0.0000
vt 0.4548 0.9838 0.0000
vt 0.4605 0.9880 0.0000
vt 0.0120 0.5395 0.0000
vt 0.0084 0.5335 0.0000
vt 0.0162 0.5452 0.0000
vt 0.0054 0.5272 0.0000
vt 0.0031 0.5207 0.0000
vt 0.0014 0.5139 0.0000
vt 0.0003 0.5070 0.0000
vt 0.0003 0.4930 0.0000
vt 0.0000 0.5000 0.0000
vt 0.0014 0.4861 0.0000
vt 0.0031 0.4793 0.0000
vt 0.0054 0.4728 0.0000
vt 0.0084 0.4665 0.0000
vt 0.0162 0.4548 0.0000
vt 0.0120 0.4605 0.0000
vt 1.0000 0.0000 0.0000
vt 0.0000 0.0000 0.0000
vt 0.0000 1.0000 0.0000
vt 1.0000 1.0000 0.0000
# 72 texture coords

o goaltransparency
g goaltransparency
usemtl default
s 1
f 1/1/1 2/2/2 3/3/3 4/4/4 
f 5/5/5 6/6/6 3/3/3 2/2/2 
f 7/7/7 8/8/8 3/3/3 6/6/6 
f 8/8/8 9/9/9 10/10/10 3/3/3 
f 3/3/3 10/10/10 11/11/11 12/12/12 
f 12/12/12 13/13/13 14/14/14 3/3/3 
f 8/8/8 15/15/15 9/9/9 
f 16/16/16 17/17/17 10/10/10 9/9/9 
f 18/18/18 19/19/19 10/10/10 17/17/17 
f 20/20/20 10/10/10 19/19/19 21/21/21 
f 22/22/22 23/23/23 11/11/11 10/10/10 
f 24/24/24 25/25/25 22/22/22 26/26/26 
f 27/27/27 28/28/28 22/22/22 25/25/25 
f 29/29/29 30/30/30 22/22/22 28/28/28 
f 22/22/22 30/30/30 31/31/31 23/23/23 
f 30/30/30 32/32/32 31/31/31 
f 33/33/33 34/34/34 23/23/23 31/31/31 
f 35/35/35 36/36/36 23/23/23 34/34/34 
f 37/37/37 23/23/23 36/36/36 38/38/38 
f 11/11/11 39/39/39 40/40/40 
f 41/41/41 42/42/42 11/11/11 40/40/40 
f 43/43/43 44/44/44 11/11/11 42/42/42 
f 45/45/45 46/46/46 11/11/11 44/44/44 
f 12/12/12 11/11/11 46/46/46 47/47/47 
f 48/48/48 49/49/49 12/12/12 47/47/47 
f 50/50/50 51/51/51 12/12/12 49/49/49 
f 52/52/52 12/12/12 51/51/51 53/53/53 
f 54/54/54 55/55/55 13/13/13 56/56/56 
f 57/57/57 58/58/58 13/13/13 55/55/55 
f 59/59/59 60/60/60 13/13/13 58/58/58 
f 60/60/60 61/61/61 14/14/14 13/13/13 
f 60/60/60 62/62/62 61/61/61 
f 63/63/63 64/64/64 14/14/14 61/61/61 
f 65/65/65 66/66/66 14/14/14 64/64/64 
f 67/67/67 14/14/14 66/66/66 68/68/68 
f 69/69/69 70/70/70 71/71/71 72/72/72 
f 71/69/71 70/70/70 73/71/73 74/72/74 
f 73/69/73 70/70/70 75/71/75 76/72/76 
f 77/72/77 75/69/75 70/70/70 78/71/78 
f 78/72/78 70/69/70 79/70/79 80/71/80 
f 81/72/81 79/69/79 70/70/70 82/71/82 
f 77/71/77 83/72/83 75/69/75 
f 77/69/77 78/70/78 84/71/84 85/72/85 
f 84/69/84 78/70/78 86/71/86 87/72/87 
f 86/69/86 78/70/78 88/71/88 89/72/89 
f 90/72/90 91/69/91 78/70/78 80/71/80 
f 92/69/92 91/70/91 93/71/93 94/72/94 
f 93/69/93 91/70/91 95/71/95 96/72/96 
f 95/69/95 91/70/91 97/71/97 98/72/98 
f 97/72/97 91/69/91 90/70/90 99/71/99 
f 99/71/99 100/72/100 97/69/97 
f 99/69/99 90/70/90 101/71/101 102/72/102 
f 101/69/101 90/70/90 103/71/103 104/72/104 
f 103/69/103 90/70/90 105/71/105 106/72/106 
f 107/71/107 108/72/108 80/69/80 
f 107/69/107 80/70/80 109/71/109 110/72/110 
f 109/69/109 80/70/80 111/71/111 112/72/112 
f 111/69/111 80/70/80 113/71/113 114/72/114 
f 113/72/113 80/69/80 79/70/79 115/71/115 
f 115/69/115 79/70/79 116/71/116 117/72/117 
f 116/69/116 79/70/79 118/71/118 119/72/119 
f 118/69/118 79/70/79 120/71/120 121/72/121 
f 122/69/122 81/70/81 123/71/123 124/72/124 
f 123/69/123 81/70/81 125/71/125 126/72/126 
f 125/69/125 81/70/81 127/71/127 128/72/128 
f 129/72/129 127/69/127 81/70/81 82/71/82 
f 129/71/129 130/72/130 127/69/127 
f 129/69/129 82/70/82 131/71/131 132/72/132 
f 131/69/131 82/70/82 133/71/133 134/72/134 
f 133/69/133 82/70/82 135/71/135 136/72/136 
f 2/2/2 1/1/1 72/1/72 71/2/71 
f 1/1/1 4/4/4 69/4/69 72/1/72 
f 4/4/4 3/3/3 70/3/70 69/4/69 
f 6/6/6 5/5/5 74/5/74 73/6/73 
f 5/5/5 2/2/2 71/2/71 74/5/74 
f 8/8/8 7/7/7 76/7/76 75/8/75 
f 7/7/7 6/6/6 73/6/73 76/7/76 
f 3/3/3 14/14/14 82/14/82 70/3/70 
f 13/13/13 12/12/12 79/12/79 81/13/81 
f 9/9/9 15/15/15 83/15/83 77/9/77 
f 15/15/15 8/8/8 75/8/75 83/15/83 
f 17/17/17 16/16/16 85/16/85 84/17/84 
f 16/16/16 9/9/9 77/9/77 85/16/85 
f 19/19/19 18/18/18 87/18/87 86/19/86 
f 18/18/18 17/17/17 84/17/84 87/18/87 
f 10/10/10 20/20/20 88/20/88 78/10/78 
f 20/20/20 21/21/21 89/21/89 88/20/88 
f 21/21/21 19/19/19 86/19/86 89/21/89 
f 11/11/11 23/23/23 90/23/90 80/11/80 
f 22/22/22 10/10/10 78/10/78 91/22/91 
f 25/25/25 24/24/24 94/24/94 93/25/93 
f 24/24/24 26/26/26 92/26/92 94/24/94 
f 26/26/26 22/22/22 91/22/91 92/26/92 
f 28/28/28 27/27/27 96/27/96 95/28/95 
f 27/27/27 25/25/25 93/25/93 96/27/96 
f 30/30/30 29/29/29 98/29/98 97/30/97 
f 29/29/29 28/28/28 95/28/95 98/29/98 
f 31/31/31 32/32/32 100/32/100 99/31/99 
f 32/32/32 30/30/30 97/30/97 100/32/100 
f 34/34/34 33/33/33 102/33/102 101/34/101 
f 33/33/33 31/31/31 99/31/99 102/33/102 
f 36/36/36 35/35/35 104/35/104 103/36/103 
f 35/35/35 34/34/34 101/34/101 104/35/104 
f 23/23/23 37/37/37 105/37/105 90/23/90 
f 37/37/37 38/38/38 106/38/106 105/37/105 
f 38/38/38 36/36/36 103/36/103 106/38/106 
f 40/40/40 39/39/39 108/39/108 107/40/107 
f 39/39/39 11/11/11 80/11/80 108/39/108 
f 42/42/42 41/41/41 110/41/110 109/42/109 
f 41/41/41 40/40/40 107/40/107 110/41/110 
f 44/44/44 43/43/43 112/43/112 111/44/111 
f 43/43/43 42/42/42 109/42/109 112/43/112 
f 46/46/46 45/45/45 114/45/114 113/46/113 
f 45/45/45 44/44/44 111/44/111 114/45/114 
f 47/47/47 46/46/46 113/46/113 115/47/115 
f 49/49/49 48/48/48 117/48/117 116/49/116 
f 48/48/48 47/47/47 115/47/115 117/48/117 
f 51/51/51 50/50/50 119/50/119 118/51/118 
f 50/50/50 49/49/49 116/49/116 119/50/119 
f 12/12/12 52/52/52 120/52/120 79/12/79 
f 52/52/52 53/53/53 121/53/121 120/52/120 
f 53/53/53 51/51/51 118/51/118 121/53/121 
f 55/55/55 54/54/54 124/54/124 123/55/123 
f 54/54/54 56/56/56 122/56/122 124/54/124 
f 56/56/56 13/13/13 81/13/81 122/56/122 
f 58/58/58 57/57/57 126/57/126 125/58/125 
f 57/57/57 55/55/55 123/55/123 126/57/126 
f 60/60/60 59/59/59 128/59/128 127/60/127 
f 59/59/59 58/58/58 125/58/125 128/59/128 
f 61/61/61 62/62/62 130/62/130 129/61/129 
f 62/62/62 60/60/60 127/60/127 130/62/130 
f 64/64/64 63/63/63 132/63/132 131/64/131 
f 63/63/63 61/61/61 129/61/129 132/63/132 
f 66/66/66 65/65/65 134/65/134 133/66/133 
f 65/65/65 64/64/64 131/64/131 134/65/134 
f 14/14/14 67/67/67 135/67/135 82/14/82 
f 67/67/67 68/68/68 136/68/136 135/67/135 
f 68/68/68 66/66/66 133/66/133 136/68/136 
# 130 polygons - 8 triangles

